<?xml version="1.0" encoding="UTF-8"?>
<svg width="97px" height="97px" viewBox="0 0 97 97" version="1.1" xmlns="http://www.w3.org/2000/svg" xmlns:xlink="http://www.w3.org/1999/xlink">
    <!-- Generator: Sketch 41 (35326) - http://www.bohemiancoding.com/sketch -->
    <title>Group</title>
    <desc>Created with Sketch.</desc>
    <defs></defs>
    <g id="Page-1" stroke="none" stroke-width="1" fill="none" fill-rule="evenodd">
        <g id="144---xxhdpi" transform="translate(-24.000000, -23.000000)" fill="#FFFFFF">
            <g id="Group" transform="translate(24.000000, 23.000000)">
                <path d="M13.9007258,14.7620648 C29.856233,-1.82034584 55.2561189,-4.77748538 74.5675352,7.69903222 C93.8789515,20.1755498 101.723723,44.6110491 93.3045183,66.0624354 C84.885314,87.5138216 62.5468593,100.006943 39.9498386,95.9018546 C17.3528179,91.7967657 0.790438607,72.2367219 0.391129032,49.1833198 C0.152648217,36.3616534 5.01472457,23.9735138 13.9007258,14.7620648 L13.9007258,14.7620648 Z M47.8272581,8.06238866 C28.6912518,8.39318136 12.4532173,22.2511225 9.04483356,41.1602711 C5.63644979,60.0694197 16.0071436,78.7625123 33.8138813,85.8062814 C51.620619,92.8500505 71.9032207,86.2824094 82.2562264,70.1203285 C92.6092321,53.9582475 90.1487463,32.703777 76.3796774,19.3568016 C68.7367528,11.9295355 58.4619188,7.86514374 47.8272581,8.06238866 L47.8272581,8.06238866 Z" id="Shape"></path>
                <rect id="Rectangle-path" transform="translate(40.246079, 33.371025) rotate(-1.010000) translate(-40.246079, -33.371025) " x="36.235051" y="22.2945672" width="8.02205645" height="22.152915"></rect>
                <rect id="Rectangle-path" transform="translate(46.055192, 61.111253) rotate(-46.010000) translate(-46.055192, -61.111253) " x="42.0441634" y="53.0547551" width="8.02205645" height="16.112996"></rect>
                <polygon id="Shape" points="71.8112903 45.9277328 32.103871 46.6267611 39.985121 38.4308502 68.3458871 37.9321053 74.1189516 43.5282591"></polygon>
                <rect id="Rectangle-path" transform="translate(48.233868, 64.644486) rotate(-46.010000) translate(-48.233868, -64.644486) " x="15.1208842" y="60.6172186" width="66.2259677" height="8.05453441"></rect>
                <polygon id="Shape" points="44.2679839 33.9774899 23.2682661 55.8162348 29.0374194 61.4123887 44.4674597 45.370081"></polygon>
                <rect id="Rectangle-path" transform="translate(52.155703, 26.108251) rotate(-1.010000) translate(-52.155703, -26.108251) " x="36.1096344" y="22.0809839" width="32.0921371" height="8.05453441"></rect>
            </g>
        </g>
    </g>
</svg>