<?xml version="1.0" encoding="UTF-8"?>
<svg width="161px" height="40px" viewBox="0 0 161 40" version="1.1" xmlns="http://www.w3.org/2000/svg" xmlns:xlink="http://www.w3.org/1999/xlink">
    <!-- Generator: Sketch 41 (35326) - http://www.bohemiancoding.com/sketch -->
    <title>logo</title>
    <desc>Created with Sketch.</desc>
    <defs></defs>
    <g id="Page-1" stroke="none" stroke-width="1" fill="none" fill-rule="evenodd">
        <g id="Desktop-HD" transform="translate(-341.000000, -25.000000)" fill="#F47115">
            <g id="logo" transform="translate(341.000000, 25.000000)">
                <polygon id="Shape" points="54.0375271 9.85423729 54.0375271 11.2372881 51.239711 11.2372881 51.239711 9.85423729 51.239711 6.99661017 51.239711 5.61016949 54.0375271 5.61016949 54.0375271 6.99661017"></polygon>
                <polygon id="Shape" points="53.8186271 9.67118644 52.4231393 9.67118644 52.4231393 6.90169492 53.8186271 6.90169492 59.6126375 6.90169492 61.0115456 6.90169492 61.0115456 9.67118644 59.6126375 9.67118644"></polygon>
                <polygon id="Shape" points="47.2345243 19.8779661 45.9621678 20.440678 44.8266238 17.9186441 46.0989803 17.3559322 54.7044882 13.5627119 47.8707025 13.5627119 46.8788117 13.5627119 46.8788117 10.7898305 47.8707025 10.7898305 61.27833 10.7898305 61.846102 13.4372881"></polygon>
                <path d="M47.9322682,24.0677966 L46.6599117,24.6237288 L45.5346287,22.1016949 L46.8069851,21.5457627 L68.4507266,12.0101695 L62.8379928,9.54237288 L63.3989241,6.89491525 L80.3192132,6.89491525 L80.8801445,9.53559322 L75.3187154,11.9864407 L81.0614211,14.5152542 L82.3406182,15.0711864 L81.2153352,17.6033898 L79.9361381,17.0474576 L71.8813007,13.5118644 L47.9322682,24.0677966 Z M71.8949819,10.5084746 L73.7761542,9.6779661 L70.0138097,9.6779661 L71.8949819,10.5084746 Z" id="Shape"></path>
                <polygon id="Shape" points="81.8173103 21.5389831 83.0896668 22.0983051 81.9643838 24.620339 80.6920273 24.0644068 65.0919791 17.1898305 63.8196226 16.6338983 64.9449057 14.1118644 66.2172621 14.6677966"></polygon>
                <polygon id="Shape" points="53.7878442 22.6101695 52.3889362 22.6101695 52.3889362 19.8372881 53.7878442 19.8372881 74.3576074 19.8372881 75.7565155 19.8372881 75.7565155 22.6101695 74.3576074 22.6101695"></polygon>
                <polygon id="Shape" points="58.4805138 26 57.0850261 26 57.0850261 23.2271186 58.4805138 23.2271186 69.6717784 23.2271186 71.0706865 23.2271186 71.0706865 26 69.6717784 26"></polygon>
                <polygon id="Shape" points="58.4805138 29.3898305 57.0816058 29.3898305 57.0816058 26.6169492 58.4805138 26.6169492 74.080562 26.6169492 75.4794701 26.6169492 75.4794701 29.3898305 74.080562 29.3898305"></polygon>
                <polygon id="Shape" points="65.4750542 21.0915254 65.4750542 22.4779661 62.6772381 22.4779661 62.6772381 21.0915254 62.6772381 19.4983051 62.6772381 18.1118644 65.4750542 18.1118644 65.4750542 19.4983051"></polygon>
                <polygon id="Shape" points="75.7599358 28.0033898 75.7599358 29.3898305 72.9621196 29.3898305 72.9621196 28.0033898 72.9621196 21.2271186 72.9621196 19.840678 75.7599358 19.840678 75.7599358 21.2271186"></polygon>
                <polygon id="Shape" points="65.9949418 28.0271186 67.3117623 27.5694915 68.2284063 30.179661 66.9115857 30.6338983 54.2495865 35 52.3991971 33.6983051 52.3991971 21.4033898 52.3991971 20.020339 55.183332 20.020339 55.183332 21.4033898 55.183332 31.7525424"></polygon>
                <polygon id="Shape" points="79.5838458 32.3016949 80.9006664 32.759322 79.9703412 35.3694915 78.6535207 34.9084746 65.9915215 30.4610169 64.6747009 30 65.6016058 27.3898305 66.9184263 27.8508475"></polygon>
                <rect id="Rectangle-path" x="53.8015255" y="11.5186441" width="3.16720996" height="3.13898305"></rect>
                <rect id="Rectangle-path" x="68.0300281" y="10.6983051" width="2.55155359" height="2.52881356"></rect>
                <rect id="Rectangle-path" x="73.174179" y="10.6983051" width="2.55155359" height="2.52881356"></rect>
                <rect id="Rectangle-path" x="70.6226255" y="11.2779661" width="2.55155359" height="2.52881356"></rect>
                <rect id="Rectangle-path" x="55.0328382" y="18.2677966" width="3.16720996" height="3.13898305"></rect>
                <rect id="Rectangle-path" x="70.4379285" y="18.2677966" width="3.16720996" height="3.13898305"></rect>
                <rect id="Rectangle-path" transform="translate(74.836014, 21.070778) rotate(-45.000000) translate(-74.836014, -21.070778) " x="73.2524089" y="19.501286" width="3.16720996" height="3.13898305"></rect>
                <rect id="Rectangle-path" transform="translate(53.082141, 21.071453) rotate(-45.000000) translate(-53.082141, -21.071453) " x="51.4985363" y="19.501961" width="3.16720996" height="3.13898305"></rect>
                <rect id="Rectangle-path" x="62.8961381" y="14.579661" width="2.55155359" height="2.52881356"></rect>
                <rect id="Rectangle-path" transform="translate(54.453031, 21.627801) rotate(-45.000000) translate(-54.453031, -21.627801) " x="52.8694259" y="20.0583095" width="3.16720996" height="3.13898305"></rect>
                <rect id="Rectangle-path" transform="translate(73.701175, 21.629167) rotate(-45.000000) translate(-73.701175, -21.629167) " x="72.1175697" y="20.0596757" width="3.16720996" height="3.13898305"></rect>
                <rect id="Rectangle-path" transform="translate(54.775145, 32.219440) rotate(-45.000000) translate(-54.775145, -32.219440) " x="53.6755141" y="31.1296097" width="2.19926134" height="2.17966102"></rect>
                <rect id="Rectangle-path" transform="translate(73.549246, 26.966499) rotate(-45.000000) translate(-73.549246, -26.966499) " x="72.4496154" y="25.8766689" width="2.19926134" height="2.17966102"></rect>
                <polygon id="Shape" points="94.1578001 33.9322034 92.584456 33.7932203 92.868342 30.6745763 94.4416861 30.8169492 104.600016 31.7254237 104.600016 18.3864407 104.600016 16.8135593 107.770646 16.8135593 107.770646 18.3864407 107.770646 33.4372881 106.043388 34.9966102"></polygon>
                <polygon id="Shape" points="85.6206985 18.6440678 84.0370935 18.6440678 84.0370935 15.5016949 85.6206985 15.5016949 120.234267 15.5016949 121.817872 15.5016949 121.817872 18.6440678 120.234267 18.6440678"></polygon>
                <polygon id="Shape" points="103.512356 17.6169492 102.12713 18.3728814 100.60167 15.6237288 101.990317 14.8677966 111.102031 9.90847458 91.4660136 9.90847458 89.8789884 9.90847458 89.8789884 6.76610169 91.4660136 6.76610169 117.275697 6.76610169 118.038426 9.71186441"></polygon>
                <polygon id="Shape" points="106.009185 14.6949153 107.459398 15.3220339 106.193882 18.1932203 104.743669 17.5661017 96.363902 13.9423729 94.9136893 13.3152542 96.1792051 10.440678 97.6259976 11.0677966"></polygon>
                <polygon id="Shape" points="121.817872 21.0135593 121.817872 22.5864407 118.647242 22.5864407 118.647242 21.0135593 118.647242 17.0745763 118.647242 15.5016949 121.817872 15.5016949 121.817872 17.0745763"></polygon>
                <rect id="Rectangle-path" x="110.387186" y="8.7559322" width="2.55155359" height="2.52881356"></rect>
                <rect id="Rectangle-path" x="102.561509" y="13.4372881" width="2.55155359" height="2.52881356"></rect>
                <rect id="Rectangle-path" x="99.0967322" y="14.1220339" width="2.55155359" height="2.52881356"></rect>
                <rect id="Rectangle-path" x="105.465355" y="14.0644068" width="2.55155359" height="2.52881356"></rect>
                <rect id="Rectangle-path" transform="translate(105.278890, 32.157882) rotate(-45.000000) translate(-105.278890, -32.157882) " x="104.003113" y="30.8934756" width="2.55155359" height="2.52881356"></rect>
                <rect id="Rectangle-path" transform="translate(107.024428, 18.195495) rotate(-45.000000) translate(-107.024428, -18.195495) " x="105.748651" y="16.9310878" width="2.55155359" height="2.52881356"></rect>
                <rect id="Rectangle-path" transform="translate(105.246907, 18.194463) rotate(-45.000000) translate(-105.246907, -18.194463) " x="103.97113" y="16.9300557" width="2.55155359" height="2.52881356"></rect>
                <rect id="Rectangle-path" transform="translate(119.363324, 18.197074) rotate(-45.000000) translate(-119.363324, -18.197074) " x="118.087548" y="16.932667" width="2.55155359" height="2.52881356"></rect>
                <polygon id="Shape" points="127.413505 11.0915254 125.826479 11.0915254 125.826479 7.94915254 127.413505 7.94915254 157.002633 7.94915254 158.589659 7.94915254 158.589659 11.0915254 157.002633 11.0915254"></polygon>
                <polygon id="Shape" points="125.566536 16.4847458 123.982931 16.4847458 123.982931 13.3423729 125.566536 13.3423729 158.849603 13.3423729 160.433208 13.3423729 160.433208 16.4847458 158.849603 16.4847458"></polygon>
                <polygon id="Shape" points="142.702304 14.9186441 142.702304 16.4881356 139.531674 16.4881356 139.531674 14.9186441 139.531674 6.92881356 139.531674 5.35932203 142.702304 5.35932203 142.702304 6.92881356"></polygon>
                <polygon id="Shape" points="126.784167 26.9220339 125.467346 27.7898305 123.719566 25.1728814 125.039807 24.3084746 152.771706 5.99322034 154.091947 5.12881356 155.836307 7.74237288 154.519486 8.60677966"></polygon>
                <polygon id="Shape" points="138.420072 28.5830508 136.836467 28.5830508 136.836467 25.440678 138.420072 25.440678 147.832774 25.440678 149.419799 25.440678 149.419799 28.5830508 147.832774 28.5830508"></polygon>
                <polygon id="Shape" points="134.804801 33.620339 134.804801 35.0101695 131.634171 35.0101695 131.634171 33.620339 131.634171 22.2881356 131.634171 20.8983051 134.804801 20.8983051 134.804801 22.2881356"></polygon>
                <polygon id="Shape" points="136.186608 22.1559322 134.599582 22.1559322 134.599582 19.0135593 136.186608 19.0135593 151.448045 19.0135593 153.03507 19.0135593 154.618675 19.0135593 154.618675 20.5864407 154.618675 22.1559322 154.618675 31.8644068 154.618675 33.4372881 154.618675 35.0101695 153.03507 35.0101695 151.448045 35.0101695 138.680016 35.0101695 136.836467 35.0101695 136.836467 31.8644068 138.680016 31.8644068 151.448045 31.8644068 151.448045 22.1559322"></polygon>
                <rect id="Rectangle-path" x="136.176347" y="14.9355932" width="2.55155359" height="2.52881356"></rect>
                <rect id="Rectangle-path" x="145.418033" y="12.1627119" width="2.55155359" height="2.52881356"></rect>
                <rect id="Rectangle-path" transform="translate(134.496179, 21.419145) rotate(-45.000000) translate(-134.496179, -21.419145) " x="133.220402" y="20.1547383" width="2.55155359" height="2.52881356"></rect>
                <rect id="Rectangle-path" transform="translate(151.755287, 21.418939) rotate(-45.000000) translate(-151.755287, -21.418939) " x="150.47951" y="20.1545321" width="2.55155359" height="2.52881356"></rect>
                <rect id="Rectangle-path" transform="translate(151.758351, 32.533841) rotate(-45.000000) translate(-151.758351, -32.533841) " x="150.482575" y="31.2694339" width="2.55155359" height="2.52881356"></rect>
                <rect id="Rectangle-path" x="136.884352" y="17.4237288" width="2.55155359" height="2.52881356"></rect>
                <path d="M5.87609795,5.82372881 C12.6426895,-0.881023813 23.245708,-1.91497297 31.201024,3.35417864 C39.1563401,8.62333025 42.2484015,18.728126 38.5863007,27.4891179 C34.9242,36.2501097 25.5278308,41.2273649 16.1434128,39.3771119 C6.75899468,37.5268589 8.43986305e-05,29.3643925 2.23507499e-14,19.8813559 C-0.00683692937,14.6072066 2.10794419,9.54793012 5.87609795,5.82372881 L5.87609795,5.82372881 Z M20.0601365,3.31525424 C12.0855542,3.31483109 5.22125957,8.89762477 3.66539056,16.6492513 C2.10952156,24.4008779 6.29543789,32.162259 13.6630726,35.1866071 C21.0307073,38.2109553 29.5279363,35.6558919 33.9579343,29.0840696 C38.3879323,22.5122473 37.516802,13.7541309 31.8773183,8.16610169 C28.7467223,5.0543451 24.4939351,3.30739406 20.0601365,3.31186441 L20.0601365,3.31525424 Z" id="Shape"></path>
                <rect id="Rectangle-path" x="15.0425371" y="9.11186441" width="3.34164593" height="9.11186441"></rect>
                <rect id="Rectangle-path" transform="translate(18.933134, 25.119044) rotate(-45.000000) translate(-18.933134, -25.119044) " x="17.2623111" y="21.8054851" width="3.34164593" height="6.62711864"></rect>
                <polygon id="Shape" points="29.7738258 19.0610169 13.2263509 19.0610169 16.5714171 15.7457627 28.388599 15.7457627 30.7554556 18.0881356"></polygon>
                <rect id="Rectangle-path" transform="translate(19.813034, 26.587171) rotate(-45.000000) translate(-19.813034, -26.587171) " x="6.01549115" y="24.9312385" width="27.5950863" height="3.31186441"></rect>
                <polygon id="Shape" points="18.3876034 13.9457627 9.47768768 22.7728814 11.8445444 25.1152542 18.3876034 18.6305085"></polygon>
                <rect id="Rectangle-path" x="15.0425371" y="9.11186441" width="13.3734243" height="3.31186441"></rect>
            </g>
        </g>
    </g>
</svg>