<?xml version="1.0" encoding="UTF-8"?>
<svg width="64px" height="64px" viewBox="0 0 64 64" version="1.1" xmlns="http://www.w3.org/2000/svg" xmlns:xlink="http://www.w3.org/1999/xlink">
    <!-- Generator: Sketch 41 (35326) - http://www.bohemiancoding.com/sketch -->
    <title>Combined Shape</title>
    <desc>Created with Sketch.</desc>
    <defs></defs>
    <g id="Page-1" stroke="none" stroke-width="1" fill="none" fill-rule="evenodd">
        <path d="M15.9372236,54.6107781 C8.87382627,49.5838598 4.26666667,41.3299598 4.26666667,32 C4.26666667,16.6833029 16.6833029,4.26666667 32,4.26666667 C47.3166971,4.26666667 59.7333333,16.6833029 59.7333333,32 C59.7333333,47.3166971 47.3166971,59.7333333 32,59.7333333 C28.3681876,59.7333333 24.8994262,59.0352287 21.720585,57.7658884 L49.8675336,29.6189398 L45.7011982,25.4526045 L29.7953148,25.4526045 L29.7953148,20.4880285 L45.766547,20.4880285 L45.766547,14.9333333 L23.7168087,14.9333333 L23.7168087,28.0101239 L14.9333333,36.7935994 L19.0066928,40.8368129 L28.5948388,31.248667 L39.6559128,31.248667 L32.1707918,38.733788 L28.3854395,34.9484357 L24.411553,38.9223223 L28.0186162,42.5293855 L15.9372236,54.6107781 Z M32,64 C49.673112,64 64,49.673112 64,32 C64,14.326888 49.673112,0 32,0 C14.326888,0 0,14.326888 0,32 C0,49.673112 14.326888,64 32,64 Z" id="Combined-Shape" fill="#F47115"></path>
    </g>
</svg>