<?xml version="1.0" encoding="UTF-8"?>
<svg width="255px" height="193px" viewBox="0 0 255 193" version="1.1" xmlns="http://www.w3.org/2000/svg" xmlns:xlink="http://www.w3.org/1999/xlink">
    <!-- Generator: Sketch 41 (35326) - http://www.bohemiancoding.com/sketch -->
    <title>Group 2</title>
    <desc>Created with Sketch.</desc>
    <defs>
        <path d="M0,70.9818182 C0,64.555232 5.21071132,59.3454545 11.6278079,59.3454545 L47.6745177,59.3454545 C54.0963787,59.3454545 59.3023256,64.553819 59.3023256,70.9818182 L59.3023256,70.9818182 C59.3023256,77.4084044 54.1053609,82.6181818 47.6801386,82.6181818 L37.0741385,82.6181818 C34.5998133,82.6181818 32.125488,90.5822939 29.6511628,90.5822939 C27.5651077,90.5822939 24.034625,82.6181818 21.9485699,82.6181818 L11.6339258,82.6181818 C5.20868599,82.6181818 0,77.4098174 0,70.9818182 L0,70.9818182 Z" id="path-1"></path>
        <mask id="mask-2" maskContentUnits="userSpaceOnUse" maskUnits="objectBoundingBox" x="-3.48837209" y="-3.48837209" width="66.2790698" height="38.2135836">
            <rect x="-3.48837209" y="55.8570825" width="66.2790698" height="38.2135836" fill="white"></rect>
            <use xlink:href="#path-1" fill="black"></use>
        </mask>
    </defs>
    <g id="Page-1" stroke="none" stroke-width="1" fill="none" fill-rule="evenodd">
        <g id="Order-Copy-3" transform="translate(-724.000000, -258.000000)">
            <g id="Group-2" transform="translate(728.000000, 258.000000)">
                <path d="M20.9302326,53.5228848 L20.9302326,159.42257 C20.9302326,167.770708 27.7004664,174.545455 36.051973,174.545455 L203.482911,174.545455 C211.82887,174.545455 218.604651,167.774708 218.604651,159.42257 L218.604651,53.5228848 C218.604651,45.1747466 211.834417,38.4 203.482911,38.4 L36.051973,38.4 C27.7060134,38.4 20.9302326,45.1707461 20.9302326,53.5228848 Z M16.2790698,53.5228848 C16.2790698,42.601084 25.1362728,33.7454545 36.051973,33.7454545 L203.482911,33.7454545 C214.401315,33.7454545 223.255814,42.602242 223.255814,53.5228848 L223.255814,159.42257 C223.255814,170.344371 214.398611,179.2 203.482911,179.2 L36.051973,179.2 C25.1335692,179.2 16.2790698,170.343213 16.2790698,159.42257 L16.2790698,53.5228848 Z" id="Combined-Shape" fill="#DDDCDC"></path>
                <text id="空" font-family="HiraMaruPro-W4, Hiragino Maru Gothic Pro" font-size="67.4418605" font-weight="normal" fill="#DDDCDC">
                    <tspan x="87.2093023" y="133.472727">空</tspan>
                </text>
                <polygon id="Star" stroke="#B6B6B6" stroke-width="1.1627907" fill="#FFF6A2" opacity="0.68115942" transform="translate(217.275118, 161.578591) rotate(-315.000000) translate(-217.275118, -161.578591) " points="217.275118 169.147475 204.237548 174.625643 209.711735 161.578591 204.237548 148.531539 217.275118 154.009707 230.312689 148.531539 224.838502 161.578591 230.312689 174.625643"></polygon>
                <polygon id="Star-Copy" stroke="#979797" stroke-width="1.1627907" fill="#FFF6A2" opacity="0.253057065" transform="translate(241.943836, 183.937977) rotate(-315.000000) translate(-241.943836, -183.937977) " points="241.943836 187.541255 236.951581 188.933863 238.343177 183.937977 236.951581 178.942091 241.943836 180.3347 246.936092 178.942091 245.544495 183.937977 246.936092 188.933863"></polygon>
                <use id="Rectangle-27" stroke="#DDDCDC" mask="url(#mask-2)" stroke-width="6.97674419" xlink:href="#path-1"></use>
                <ellipse id="Oval" stroke="#DDDCDC" stroke-width="4.65116279" cx="16.2790698" cy="70.9818182" rx="2.3255814" ry="2.32727273"></ellipse>
                <ellipse id="Oval-Copy" stroke="#DDDCDC" stroke-width="4.65116279" cx="30.2325581" cy="70.9818182" rx="2.3255814" ry="2.32727273"></ellipse>
                <ellipse id="Oval-Copy-2" stroke="#DDDCDC" stroke-width="4.65116279" cx="44.1860465" cy="70.9818182" rx="2.3255814" ry="2.32727273"></ellipse>
                <path d="M128.083978,11.269886 C128.346416,10.4698542 128.488372,9.61515331 128.488372,8.72727273 C128.488372,4.2286624 124.844178,0.581818182 120.348837,0.581818182 C115.853496,0.581818182 112.209302,4.2286624 112.209302,8.72727273 C112.209302,9.41309896 112.294,10.0791285 112.4535,10.7154577 L61.0786209,35.0320206 L62.0729479,37.1358441 L113.339488,12.8705596 C114.756612,15.2662773 117.365258,16.8727273 120.348837,16.8727273 C123.353079,16.8727273 125.977177,15.2439496 127.387457,12.8206724 L178.759397,37.1358441 L179.753724,35.0320206 L128.352018,10.7027599 L128.083978,11.269886 L128.083978,11.269886 Z M120.348837,13.3818182 C117.780071,13.3818182 115.697674,11.2979072 115.697674,8.72727273 C115.697674,6.15663826 117.780071,4.07272727 120.348837,4.07272727 C122.917603,4.07272727 125,6.15663826 125,8.72727273 C125,11.2979072 122.917603,13.3818182 120.348837,13.3818182 Z" id="Combined-Shape" fill="#DDDCDC"></path>
            </g>
        </g>
    </g>
</svg>